<svg id="Layer_1" data-name="Layer 1" xmlns="http://www.w3.org/2000/svg" xmlns:xlink="http://www.w3.org/1999/xlink" viewBox="0 0 283.73 146.64"><defs><style>.cls-1{fill:#fff;}.cls-2{fill:#091c30;}.cls-3{fill:#dbdbdb;}.cls-4{fill:#c6c6c6;}.cls-5{fill:#3b3b63;}.cls-6{fill:#53537a;}.cls-7{fill:#bc9375;}.cls-8{fill:#c49a7e;}.cls-9{fill:#d8b7a0;}.cls-10{fill:#333152;}.cls-11{mask:url(#mask);}</style><mask id="mask" x="39.16" y="100.21" width="14.4" height="10.03" maskUnits="userSpaceOnUse"><g transform="translate(-.76 -.99)"><g id="mask0"><path class="cls-1" d="M43.56,109c-1.79-1.34-3.63-3-3.63-4.33,0-.85,1.53-3.47,1.53-3.47H52.83s1.49,2.32,1.49,3.47-1.85,2.85-3.71,4.19c-.63-1.07-1.43-1.25-1.8-.41a3.36,3.36,0,0,0-.14,1.72c-1,.64-1.74,1-1.74,1s-.57-.32-1.39-.85a3.53,3.53,0,0,0-.1-1.92c-.38-.86-1.19-.65-1.83.45Z"/></g></g></mask></defs><path class="cls-2" d="M256.23,81.86h-1.1v19.06h-13.7V53.45l13.7-21.4V76.34c2.72-3.34,11.9-16,11.9-16h16.91l-16,17L284.49,101H267.2Zm-38.16-3.12,5.62-18.29h13.56l-15.9,40.34c-4.73,12.13-11.52,20.34-21.64,20.34a19.29,19.29,0,0,1-8.89-2l5.45-8.43a22.86,22.86,0,0,0,2.5.13c4.67,0,8.18-4.54,10.45-9.93L192.54,60.45h15.35l6,18.07a68.49,68.49,0,0,1,2,10A94.51,94.51,0,0,1,218.07,78.74Zm-41.36-.94c0-5.28-2.34-7.78-6.78-7.78a12.24,12.24,0,0,0-6,1.56v29.34H150.23V60.84l13.4-1.1-.32,6.55h.45a17,17,0,0,1,13.63-6.84c7,0,13.07,4.34,13.07,14.62v26.85H176.71ZM111,98.85l1.23-9.34a30.84,30.84,0,0,0,13.17,3.11c3,0,4.9-1,4.9-2.79,0-5.12-18.46-3.89-18.46-17.28,0-8.56,7.85-13.07,17.69-13.07A41.75,41.75,0,0,1,142.8,62l-1.33,9.17a36.24,36.24,0,0,0-12-2.56c-2.4,0-4.35.85-4.35,2.4,0,5.06,18.85,4.06,18.85,17.12,0,8.69-7.72,13.69-18.3,13.69A33.19,33.19,0,0,1,111,98.85Z" transform="translate(-.76 -.99)"/><path class="cls-1" d="M81.23,39.68H13.12q0-6.41,18.47-38.69s1.71,11.35,5.12,34.06h20.8L62.62,1Q81.24,33.71,81.23,39.68Z" transform="translate(-.76 -.99)"/><path class="cls-1" d="M47.07,147.62.76,115.14V39.34S17.89,33,47.13,33s46.25,6.33,46.25,6.33v75.8Z" transform="translate(-.76 -.99)"/><path class="cls-3" d="M47.07,143.06,3.72,112.78V42.38S19.93,36.5,47.07,36.5Z" transform="translate(-.76 -.99)"/><path class="cls-4" d="M47.13,36.5h-.06V143h0l43-30.19V42.38S74.27,36.5,47.13,36.5Z" transform="translate(-.76 -.99)"/><path class="cls-5" d="M70.53,126.49l-3.65-31.8H46.78v48.44l.29.27Q58.8,135.38,70.53,126.49Z" transform="translate(-.76 -.99)"/><path class="cls-6" d="M23.63,126.74,47.07,143.4l0-49.67H26.78Z" transform="translate(-.76 -.99)"/><path class="cls-7" d="M57.11,117.33c0,5.46-5.18,8.17-9.93,8.17s-10-2.71-10-8.17" transform="translate(-.76 -.99)"/><path class="cls-1" d="M47.12,120.16c-3.81,0-5.66-2.76-5.66-8.43h1.81c0,6.64,2.6,6.64,3.85,6.64s3.85,0,3.85-6.64h1.82C52.79,117.4,50.94,120.16,47.12,120.16Z" transform="translate(-.76 -.99)"/><path class="cls-8" d="M47.07,113.11a6.69,6.69,0,0,0,6.81,4.56,8.59,8.59,0,0,0,8.29-5.92c2.19-5.9,2.17-14.12,2.17-14.12s9.71-12,9.71-16h-27Z" transform="translate(-.76 -.99)"/><path class="cls-9" d="M19.71,81.61c0,4.69,9.63,16,9.63,16s0,8.21,2.16,14.12a8.6,8.6,0,0,0,8.3,5.92,7.55,7.55,0,0,0,7.27-4.56V81.61Z" transform="translate(-.76 -.99)"/><path class="cls-5" d="M72.89,54.64c-7.49-7.56-9.36-23.32-9.36-23.32-1.4,5-4.44,19.61-4.44,19.61A46,46,0,0,0,46.84,49q-.31,0,0,59.21l6-4.31L54,83l6.44,7.24,8.31,2.39,3.1-2.17a15.77,15.77,0,0,0,2.08-4.17C75.09,83.39,72.5,61,72.5,61,71.58,59.13,72.89,54.64,72.89,54.64Z" transform="translate(-.76 -.99)"/><path class="cls-6" d="M35.21,50.93s-3-14.65-4.43-19.62c0,0-1.87,15.77-9.36,23.33,0,0,1.31,4.48.39,6.38,0,0-2.59,22.37-1.44,25.29a15.64,15.64,0,0,0,2.08,4.18l3.1,2.17,8.3-2.39L40.29,83l1.13,20.91,5.66,4.19V48.93A39.19,39.19,0,0,0,35.21,50.93Z" transform="translate(-.76 -.99)"/><path class="cls-10" d="M67.65,16.7C68.89,19,79.57,40.06,79.57,47.36L74.83,60.07c.8,7.17,2.4,22.75,1.19,25.79-.74,1.88-3.57,5.76-6,8.89l3.31,29.77-4.48,3.17-2.48-21.75a35.81,35.81,0,0,1-1.64,6.68,11.27,11.27,0,0,1-5.22,6.18c-.13,6.72-6.42,10.34-12.34,10.34s-12.31-3.62-12.45-10.33a11.3,11.3,0,0,1-5.23-6.19,35.26,35.26,0,0,1-1.6-6.42l-2.38,21.89L21,124.86l3.25-30c-2.44-3.15-5.33-7.08-6.08-9-1.2-3,.33-18.62,1.14-25.79l-5-13.15v-.43c0-7.3,11-27.51,12.2-29.79l3.55-6.4Q33.3,32.55,33.3,32.57l1.75,12,2.29,3.72a32.61,32.61,0,0,1,9.76-1.75,33,33,0,0,1,9.8,1.75l2.29-3.72,5-34.29ZM47.18,124.37c2.62,0,6.35-1.17,7.28-4.27l-.29,0a11.09,11.09,0,0,1-1.45-.11,6.54,6.54,0,0,1-5.6,2.41A6.52,6.52,0,0,1,41.54,120a9.69,9.69,0,0,1-1.46.12l-.29,0C40.73,123.2,44.52,124.37,47.18,124.37Zm-3.07-5.09a5.34,5.34,0,0,0,6,0,9.83,9.83,0,0,1-1.75-1,4.18,4.18,0,0,1-1.26.13,4.71,4.71,0,0,1-1.27-.13A9.39,9.39,0,0,1,44.11,119.28ZM62.73,96.19C66,92.25,70.8,85.91,71.51,84.13,72,82.31,71.13,70.19,70,60l-.06-.56,1-2.52c-3.13-3.29-5.32-7.8-6.81-12.05l-.2,1.33-4.94,8L57,53.43a30,30,0,0,0-9.88-2.1,29.38,29.38,0,0,0-9.83,2.1l-1.93.81-5-8-.15-1c-1.51,4.21-3.7,8.64-6.82,11.86l.91,2.4-.06.57c-1.15,10.15-2.06,22.27-1.51,24.14s5.53,8.08,8.75,12l.54.66v.84c0,.08,0,7.87,2,13.29a6.2,6.2,0,0,0,6,4.36,5.52,5.52,0,0,0,4.8-3.14c.78-1.51,1.17-4,1.17-7.45h2a21.08,21.08,0,0,0,1.25,7.47,5.63,5.63,0,0,0,4.85,3.12,6.2,6.2,0,0,0,6-4.35c2-5.44,2-13.22,2-13.3v-.84Z" transform="translate(-.76 -.99)"/><path class="cls-10" d="M62.19,75h-9.7v.1a6.37,6.37,0,0,0,12.73,0V75Z" transform="translate(-.76 -.99)"/><path class="cls-1" d="M54.91,75v.1a3.64,3.64,0,0,0,7.28,0V75Z" transform="translate(-.76 -.99)"/><path class="cls-10" d="M58,75l0,0c.21,0,.33.51.28.82a1,1,0,0,1-1,.83,1.57,1.57,0,0,0,1.34,1.22,1.6,1.6,0,0,0,1.82-1.34c.09-.64-.22-1.55-.74-1.55Z" transform="translate(-.76 -.99)"/><path class="cls-10" d="M38.78,75h-9.7v.1a6.37,6.37,0,0,0,12.73,0V75Z" transform="translate(-.76 -.99)"/><path class="cls-1" d="M31.51,75v.1a3.64,3.64,0,0,0,7.27,0V75Z" transform="translate(-.76 -.99)"/><path class="cls-10" d="M36.26,75h-1.7l-.05,0c.22,0,.33.51.29.82a1,1,0,0,1-1,.83A1.62,1.62,0,0,0,37,76.56C37.1,75.92,36.79,75,36.26,75Z" transform="translate(-.76 -.99)"/><path class="cls-8" d="M61.45,72.17c.41-.44,3.87-4.3-.76-4.3-4.17,0-7.18,3.32-8,4.3Z" transform="translate(-.76 -.99)"/><path class="cls-9" d="M41.51,72.17c-.79-1-3.8-4.3-8-4.3-4.62,0-1.16,3.86-.76,4.3Z" transform="translate(-.76 -.99)"/><path class="cls-9" d="M19.29,46.1c.27-3.79,4.28-12.86,8.1-20.5l1,7C28,35.2,26.24,45.45,21.48,51.91Z" transform="translate(-.76 -.99)"/><path class="cls-8" d="M65.93,32l.93-6.44c3.82,7.64,7.83,16.71,8.1,20.5l-2.14,5.68C67.68,44.66,66.06,33.1,65.93,32Z" transform="translate(-.76 -.99)"/><g class="cls-11"><path class="cls-10" d="M43.56,109c-1.79-1.34-3.63-3-3.63-4.33,0-.85,1.53-3.47,1.53-3.47H52.83s1.49,2.32,1.49,3.47-1.85,2.85-3.71,4.19c-.63-1.07-1.43-1.25-1.8-.41a3.36,3.36,0,0,0-.14,1.72c-1,.64-1.74,1-1.74,1s-.57-.32-1.39-.85a3.53,3.53,0,0,0-.1-1.92c-.38-.86-1.19-.65-1.83.45Z" transform="translate(-.76 -.99)"/></g></svg>
